<svg xmlns="http://www.w3.org/2000/svg" xmlns:xlink="http://www.w3.org/1999/xlink" version="1.1" x="0px" y="0px" viewBox="0 0 100 125" enable-background="new 0 0 100 100" xml:space="preserve"><path fill-rule="evenodd" clip-rule="evenodd" d="M25.723,88.672c-4.755,4.754-12.401,4.754-17.156,0  c-4.755-4.754-4.755-12.49,0-17.151c-4.755-4.754-4.755-12.49,0-17.244c4.755-4.754,12.401-4.754,17.156,0  c3.543-3.449,8.578-4.381,12.867-2.703l43.73-43.811l7.086,7.084l-2.797,2.797L95,26.033l-5.595,5.593l-8.392-8.39l-2.797,2.797  l5.594,5.593l-5.594,5.593l-5.595-5.5L45.676,58.564c1.679,4.381,0.746,9.414-2.797,12.956c4.755,4.661,4.755,12.397,0,17.151  C38.217,93.426,30.478,93.426,25.723,88.672L25.723,88.672z M37.844,76.554c1.958,1.958,1.958,5.034,0,6.991s-5.035,1.957-6.993,0  s-1.958-5.033,0-6.991C32.809,74.597,35.886,74.597,37.844,76.554L37.844,76.554z M37.844,66.394c1.958-1.957,1.958-5.033,0-6.99  c-1.958-1.958-5.035-1.958-6.993,0c-1.958,1.957-1.958,5.033,0,6.99C32.809,68.352,35.886,68.352,37.844,66.394L37.844,66.394z   M20.688,83.545c-1.958,1.957-5.128,1.957-6.993,0c-1.958-1.957-1.958-5.033,0-6.991c1.865-1.957,5.035-1.957,6.993,0  C22.646,78.512,22.646,81.588,20.688,83.545L20.688,83.545z M20.688,59.403c-1.958-1.958-5.128-1.958-6.993,0  c-1.958,1.957-1.958,5.033,0,6.99c1.865,1.958,5.035,1.958,6.993,0C22.646,64.437,22.646,61.36,20.688,59.403L20.688,59.403z"/><text x="0" y="115" fill="#000000" font-size="5px" font-weight="bold" font-family="'Helvetica Neue', Helvetica, Arial-Unicode, Arial, Sans-serif">Created by CombineDesign</text><text x="0" y="120" fill="#000000" font-size="5px" font-weight="bold" font-family="'Helvetica Neue', Helvetica, Arial-Unicode, Arial, Sans-serif">from the Noun Project</text></svg>